<svg width="70" height="77" viewBox="0 0 70 77" fill="none" xmlns="http://www.w3.org/2000/svg">
<path d="M35.6321 40.6363C34.9778 40.1873 34.6178 39.5911 34.6178 38.9568C34.6178 38.3154 34.9778 37.7215 35.6252 37.282L65.1783 17.1038C67.792 15.3102 69.2355 12.9228 69.2355 10.3856C69.2355 7.85089 67.7954 5.4658 65.1783 3.66748C62.5612 1.87154 59.0856 0.883301 55.3884 0.883301C51.6913 0.883301 48.2156 1.87154 45.6401 3.63898L5.0715 30.5591C1.80359 32.8016 0 35.783 0 38.9568C0 42.1306 1.80359 45.1143 5.11997 47.3925L40.0251 70.3667L45.5847 74.1819C48.2018 75.9779 51.6809 76.9661 55.3746 76.9661C59.0683 76.9661 62.5509 75.9779 65.1645 74.1819C67.7816 72.386 69.2217 69.9985 69.2217 67.4638C69.2217 64.929 67.7816 62.5416 65.1576 60.7361L35.6321 40.6363ZM60.2834 70.8229C57.6663 72.6188 53.1037 72.6188 50.4866 70.8229L9.96646 43.9954C8.00363 42.6508 6.92355 40.8596 6.92355 38.9568C6.92355 37.0516 8.00363 35.2627 9.92491 33.9467L50.49 7.02656C51.7951 6.12859 53.5329 5.63447 55.3884 5.63447C57.2336 5.63447 58.9714 6.12859 60.2834 7.02656C61.5885 7.92453 62.312 9.11707 62.312 10.3856C62.312 11.6542 61.5885 12.8467 60.2903 13.74L30.7371 33.9182C28.7743 35.2651 27.6942 37.0539 27.6942 38.9568C27.6942 40.8596 28.7743 42.6508 30.7475 44.0001L60.2834 64.1047C61.5885 65.0027 62.312 66.1976 62.312 67.4638C62.312 68.7347 61.5885 69.9225 60.2834 70.8229Z" fill="#76FC50"/>
</svg>
