<svg width="70" height="77" viewBox="0 0 70 77" fill="none" xmlns="http://www.w3.org/2000/svg">
<path d="M34.0825 39.9525C34.7368 39.5035 35.0968 38.9072 35.0968 38.2729C35.0968 37.6315 34.7368 37.0376 34.0894 36.5982L4.53625 16.4199C1.92262 14.6264 0.47905 12.2389 0.47905 9.7018C0.47905 7.16705 1.91915 4.78196 4.53625 2.98365C7.15336 1.18771 10.629 0.199463 14.3262 0.199463C18.0233 0.199463 21.499 1.18771 24.0745 2.95514L64.6431 29.8752C67.911 32.1178 69.7146 35.0992 69.7146 38.2729C69.7146 41.4467 67.911 44.4304 64.5946 46.7086L29.6895 69.6829L24.1299 73.4981C21.5128 75.294 18.0337 76.2823 14.34 76.2823C10.6463 76.2823 7.16375 75.294 4.5501 73.4981C1.933 71.7021 0.492897 69.3147 0.492897 66.7799C0.492897 64.2452 1.933 61.8577 4.55702 60.0523L34.0825 39.9525ZM9.43121 70.139C12.0483 71.935 16.6109 71.935 19.228 70.139L59.7481 43.3116C61.711 41.967 62.791 40.1758 62.791 38.2729C62.791 36.3677 61.711 34.5789 59.7897 33.2628L19.2246 6.34272C17.9195 5.44475 16.1817 4.95063 14.3262 4.95063C12.481 4.95063 10.7432 5.44475 9.43121 6.34272C8.12612 7.24069 7.40261 8.43324 7.40261 9.7018C7.40261 10.9704 8.12611 12.1629 9.42428 13.0561L38.9775 33.2343C40.9403 34.5813 42.0204 36.3701 42.0204 38.2729C42.0204 40.1758 40.9403 41.967 38.9671 43.3163L9.43121 63.4209C8.12612 64.3188 7.40261 65.5138 7.40261 66.7799C7.40261 68.0509 8.12612 69.2387 9.43121 70.139Z" fill="#76FC50"/>
</svg>
